Ground reaction force (.MOT) by Lee-Son Toolkit
nRows=100
nColumns=19

name Static_grf.mot
datacolumns 19
datarows 100
range 0 0.099
endheader
time	1_ground_force_vx	1_ground_force_vy	1_ground_force_vz	1_ground_force_px	1_ground_force_py	1_ground_force_pz	2_ground_force_vx	2_ground_force_vy	2_ground_force_vz	2_ground_force_px	2_ground_force_py	2_ground_force_pz	1_ground_torque_x	1_ground_torque_y	1_ground_torque_z	2_ground_torque_x	2_ground_torque_y	2_ground_torque_z
0	26.351	324.831	-5.20683	0.370415	0	0.29199	-35.1184	314.607	6.32603	0.754087	0	0.282613	0	-2.87652	0	0	3.23761	0
0.001	28.5983	324.234	-5.33098	0.370952	0	0.296658	-34.3574	314.604	5.9709	0.754315	0	0.282469	0	-3.10223	0	0	3.27886	0
0.002	28.2611	325.527	-5.076	0.3703	0	0.291609	-34.7853	314.787	5.92179	0.754471	0	0.281871	0	-2.88718	0	0	3.28396	0
0.003	28.4666	324.828	-5.25184	0.370711	0	0.291718	-34.8164	315.574	5.35641	0.755656	0	0.282257	0	-2.92287	0	0	3.3299	0
0.004	28.5974	325.088	-5.34025	0.370333	0	0.29184	-34.7847	315.311	5.90141	0.753966	0	0.282218	0	-2.9921	0	0	3.29039	0
0.005	28.6856	325.174	-5.25319	0.3704	0	0.291551	-34.6095	315.304	6.23654	0.754603	0	0.282422	0	-2.99222	0	0	3.24693	0
0.006	28.5088	324.735	-5.38462	0.370693	0	0.29177	-34.8047	317.418	5.64754	0.755456	0	0.281897	0	-3.09786	0	0	3.39285	0
0.007	28.3956	325.087	-4.76098	0.370543	0	0.291881	-34.8324	315.047	5.96667	0.75464	0	0.282454	0	-2.91803	0	0	3.30364	0
0.008	28.7565	324.652	-5.16363	0.371111	0	0.291534	-34.4124	315.124	6.18792	0.755753	0	0.282332	0	-2.95386	0	0	3.19985	0
0.009	28.6611	325.441	-5.29489	0.370736	0	0.292268	-35.1464	314.611	6.03009	0.755082	0	0.282172	0	-2.99372	0	0	3.27781	0
0.01	29.1203	325.154	-5.16227	0.370812	0	0.29175	-34.2748	315.737	6.14654	0.754784	0	0.282272	0	-3.48362	0	0	3.17219	0
0.011	28.3393	325.2	-5.18588	0.371175	0	0.292052	-34.6418	313.551	6.14766	0.754286	0	0.282132	0	-2.46486	0	0	3.14631	0
0.012	28.57	325.699	-4.64866	0.369477	0	0.292031	-34.2245	314.508	6.68963	0.754409	0	0.282917	0	-2.86809	0	0	3.21508	0
0.013	28.573	325.53	-5.29784	0.370869	0	0.291908	-34.0703	314.858	6.30642	0.75487	0	0.282695	0	-2.92374	0	0	3.20284	0
0.014	28.6181	327.967	-5.19064	0.369535	0	0.292101	-34.5962	316.184	5.64971	0.755563	0	0.2824	0	-3.1073	0	0	3.3426	0
0.015	27.7268	325.269	-5.11352	0.370744	0	0.292802	-34.6195	313.637	5.99407	0.754134	0	0.283157	0	-2.93208	0	0	3.25206	0
0.016	28.0456	324.388	-5.29723	0.370916	0	0.291445	-34.3826	314.518	6.06056	0.754614	0	0.28264	0	-2.98406	0	0	3.34568	0
0.017	27.8371	325.533	-5.20448	0.370775	0	0.292656	-34.3906	310.139	5.77952	0.752468	0	0.282726	0	-2.91917	0	0	3.23904	0
0.018	28.2126	329.376	-5.35266	0.369337	0	0.291965	-34.3128	313.813	6.10375	0.755011	0	0.282519	0	-2.88179	0	0	3.25758	0
0.019	28.4593	325.705	-5.07326	0.370846	0	0.292279	-34.6062	314.788	5.8089	0.754594	0	0.281301	0	-2.91355	0	0	3.25316	0
0.02	28.417	325.178	-4.67241	0.371426	0	0.292095	-34.4561	315.303	6.01141	0.75527	0	0.282668	0	-2.89492	0	0	3.29183	0
0.021	29.4385	325.705	-5.47222	0.371145	0	0.292585	-34.062	313.903	5.65955	0.754339	0	0.282604	0	-3.0438	0	0	3.309	0
0.022	28.8759	323.698	-5.49067	0.371732	0	0.29238	-34.3004	312.246	5.61772	0.754007	0	0.282812	0	-2.94622	0	0	3.42644	0
0.023	28.4642	328.503	-5.32898	0.369871	0	0.291845	-34.19	312.679	5.79548	0.7541	0	0.282513	0	-2.86052	0	0	3.32221	0
0.024	28.541	326.841	-5.32234	0.370569	0	0.29218	-36.7223	313.397	5.62421	0.753801	0	0.282927	0	-2.94186	0	0	3.32259	0
0.025	28.7247	326.232	-5.54491	0.371002	0	0.292014	-34.4191	313.82	5.43333	0.754283	0	0.282543	0	-2.93911	0	0	3.32547	0
0.026	28.5003	326.142	-5.31933	0.370889	0	0.292371	-34.4823	313.559	5.1665	0.753871	0	0.282853	0	-2.98817	0	0	3.37785	0
0.027	28.3742	327.97	-5.39241	0.369943	0	0.292077	-34.3342	314.252	5.67863	0.754709	0	0.282749	0	-3.09704	0	0	3.28948	0
0.028	28.3934	325.707	-5.72024	0.371279	0	0.29232	-34.3569	314.341	5.61097	0.754716	0	0.282675	0	-3.01408	0	0	3.29256	0
0.029	28.8193	325.535	-5.43003	0.371104	0	0.292215	-34.003	314.949	5.43093	0.755226	0	0.282781	0	-2.88452	0	0	3.26833	0
0.03	28.5443	326.584	-5.54226	0.370609	0	0.29255	-34.2074	314.777	5.74433	0.755402	0	0.282833	0	-2.9096	0	0	3.33524	0
0.031	28.7452	326.49	-5.46	0.370759	0	0.291391	-33.7707	313.718	5.5035	0.754811	0	0.283393	0	-2.93524	0	0	3.28298	0
0.032	28.7427	326.67	-5.58849	0.371188	0	0.292454	-34.1248	313.118	5.27898	0.75437	0	0.282732	0	-2.99053	0	0	3.3572	0
0.033	28.4539	326.935	-5.9679	0.370728	0	0.292449	-34.3092	313.731	5.34182	0.754817	0	0.28238	0	-2.95367	0	0	3.30909	0
0.034	28.4479	327.375	-5.48316	0.373109	0	0.292459	-34.1458	312.754	6.01738	0.754567	0	0.283041	0	-2.95745	0	0	3.17201	0
0.035	28.5129	327.099	-4.00279	0.369761	0	0.29279	-34.2316	312.936	5.3689	0.753983	0	0.283062	0	-2.81107	0	0	3.24655	0
0.036	28.5817	327.368	-5.56762	0.370667	0	0.292472	-34.273	314.069	5.4935	0.756303	0	0.283104	0	-2.99149	0	0	3.2365	0
0.037	28.3411	326.581	-5.18463	0.370819	0	0.292772	-34.3269	313.202	5.20944	0.754625	0	0.28306	0	-2.94867	0	0	3.31977	0
0.038	28.6336	326.407	-5.76664	0.371216	0	0.292361	-34.3967	313.553	5.56802	0.754501	0	0.282913	0	-3.01677	0	0	3.31547	0
0.039	28.7619	327.018	-5.72219	0.37094	0	0.292564	-34.0519	312.675	5.34798	0.753983	0	0.282913	0	-3.04996	0	0	3.28313	0
0.04	28.789	326.749	-5.68866	0.370813	0	0.290615	-34.3062	313.553	5.07226	0.754824	0	0.282502	0	-2.95857	0	0	3.2634	0
0.041	28.7262	328.674	-5.77063	0.370188	0	0.292604	-34.0339	313.198	5.30062	0.754445	0	0.282888	0	-3.13728	0	0	3.25601	0
0.042	28.6955	326.49	-4.13775	0.371132	0	0.292639	-33.9846	312.672	5.21309	0.754174	0	0.283111	0	-2.83139	0	0	3.26555	0
0.043	28.6134	326.661	-5.60473	0.370855	0	0.289778	-34.4676	314.163	5.18318	0.755076	0	0.283145	0	-2.87006	0	0	3.27663	0
0.044	29.5502	325.971	-5.76456	0.371469	0	0.292416	-34.0491	320.983	5.07756	0.758317	0	0.283244	0	-3.00749	0	0	3.28925	0
0.045	28.5903	326.145	-5.49788	0.371341	0	0.292468	-34.272	311.973	5.14713	0.754022	0	0.283812	0	-2.97722	0	0	3.33309	0
0.046	28.5671	326.584	-6.45574	0.370583	0	0.292589	-34.0973	312.321	5.41336	0.754495	0	0.283124	0	-3.10073	0	0	3.2492	0
0.047	28.7458	326.411	-5.80761	0.370906	0	0.292853	-34.1632	312.675	5.03305	0.754089	0	0.283085	0	-2.97559	0	0	3.29241	0
0.048	28.5312	327.268	-5.65377	0.370579	0	0.292796	-33.7963	307.949	5.45143	0.752199	0	0.28323	0	-3.32286	0	0	3.34777	0
0.049	27.8536	326.322	-5.67082	0.370534	0	0.293288	-33.8732	312.667	5.43864	0.754214	0	0.283548	0	-3.01769	0	0	3.25524	0
0.05	28.6334	326.586	-5.67476	0.370913	0	0.292829	-34.9493	312.676	5.38708	0.75432	0	0.283571	0	-2.93354	0	0	3.27177	0
0.051	27.8935	327.022	-5.69649	0.370742	0	0.293182	-33.8193	314.587	5.25212	0.755351	0	0.283479	0	-3.00602	0	0	3.1607	0
0.052	28.6543	326.845	-6.14282	0.369907	0	0.292667	-33.959	311.969	5.50549	0.754101	0	0.283088	0	-3.03126	0	0	3.23053	0
0.053	28.7402	327.022	-5.78781	0.37117	0	0.292849	-34.0056	312.149	5.14328	0.754465	0	0.282377	0	-3.02304	0	0	3.21763	0
0.054	28.6622	325.802	-5.62842	0.371247	0	0.292794	-34.157	311.53	5.28073	0.754113	0	0.283508	0	-2.87551	0	0	3.22226	0
0.055	29.0769	326.671	-5.89705	0.370994	0	0.292916	-34.1232	312.75	5.90627	0.754654	0	0.283707	0	-3.04967	0	0	3.19351	0
0.056	28.947	326.408	-6.22958	0.369786	0	0.292741	-34.1377	311.437	6.08719	0.754357	0	0.283475	0	-3.04999	0	0	3.15357	0
0.057	28.7843	327.2	-5.9636	0.370932	0	0.293285	-33.2664	311.963	5.41706	0.754601	0	0.282797	0	-3.01817	0	0	3.18973	0
0.058	28.836	326.681	-5.67423	0.371079	0	0.293026	-34.2449	313.895	5.38447	0.755543	0	0.283124	0	-2.79309	0	0	3.23416	0
0.059	28.8983	327.202	-5.72287	0.371093	0	0.292637	-33.8379	310.393	5.26257	0.753911	0	0.283424	0	-2.85078	0	0	3.28072	0
0.06	27.6435	328.071	-5.88318	0.370518	0	0.292392	-34.2042	305.929	5.273	0.751476	0	0.283791	0	-2.94987	0	0	3.21122	0
0.061	28.6074	326.844	-5.29375	0.36993	0	0.293003	-33.8474	311.882	5.12434	0.754417	0	0.283285	0	-2.93557	0	0	3.27626	0
0.062	28.6093	326.588	-5.6948	0.371526	0	0.293358	-33.8169	311.539	4.65863	0.753323	0	0.283289	0	-3.00377	0	0	3.36472	0
0.063	29.0284	327.46	-6.43339	0.370453	0	0.292977	-34.1795	311.094	5.90863	0.754011	0	0.2829	0	-3.09663	0	0	3.19853	0
0.064	28.9309	327.977	-5.67778	0.370741	0	0.292951	-34.0637	313.892	5.61048	0.755194	0	0.283002	0	-3.13917	0	0	3.17931	0
0.065	28.9599	327.543	-5.68247	0.371174	0	0.292127	-33.7547	311.268	5.35156	0.754145	0	0.283465	0	-2.98744	0	0	3.3048	0
0.066	28.6715	327.547	-5.96637	0.370346	0	0.29288	-33.7767	311.001	5.66301	0.754425	0	0.28318	0	-2.98272	0	0	3.18928	0
0.067	28.9704	325.617	-5.85076	0.371532	0	0.292754	-34.0223	311.091	5.68504	0.754152	0	0.283179	0	-3.16871	0	0	3.20003	0
0.068	28.7245	326.238	-5.78461	0.371381	0	0.293015	-33.9201	311.541	4.65015	0.755475	0	0.282949	0	-2.97512	0	0	3.42244	0
0.069	28.9213	326.763	-5.6744	0.371292	0	0.293054	-33.5212	311.52	5.88274	0.756141	0	0.283413	0	-2.94392	0	0	3.21018	0
0.07	28.953	328.332	-5.65684	0.370755	0	0.292959	-34.1107	310.562	5.77712	0.754259	0	0.284368	0	-3.02134	0	0	3.27387	0
0.071	28.8291	326.934	-5.74217	0.371361	0	0.293008	-33.9536	310.565	5.77498	0.754293	0	0.28312	0	-3.04738	0	0	3.18996	0
0.072	29.0348	329.111	-5.81728	0.370353	0	0.292514	-34.0383	312.755	5.92574	0.755271	0	0.282843	0	-3.15192	0	0	3.2096	0
0.073	28.6483	327.371	-5.65366	0.370937	0	0.293048	-34.0298	311.444	5.68194	0.754977	0	0.283011	0	-3.00483	0	0	3.24966	0
0.074	28.9012	329.822	-5.57356	0.37007	0	0.29267	-33.7875	311.702	5.86094	0.755411	0	0.283028	0	-2.85023	0	0	3.2335	0
0.075	28.8179	328.598	-5.85518	0.370696	0	0.293474	-33.8408	310.742	5.57499	0.754015	0	0.283114	0	-3.0276	0	0	3.22923	0
0.076	29.1799	327.898	-6.01019	0.370773	0	0.293236	-33.9282	310.042	5.66414	0.754179	0	0.28306	0	-3.04795	0	0	3.2259	0
0.077	29.4694	327.722	-5.85417	0.371374	0	0.293267	-33.8767	311.967	5.70366	0.755209	0	0.282933	0	-3.06994	0	0	3.23456	0
0.078	30.89	328.504	-5.81493	0.37093	0	0.29252	-34.1567	310.219	6.01881	0.754614	0	0.282544	0	-3.05997	0	0	3.1841	0
0.079	29.2683	327.897	-5.69878	0.370902	0	0.293156	-33.53	310.39	5.52981	0.754773	0	0.283122	0	-3.00912	0	0	3.25632	0
0.08	28.7914	326.506	-5.74107	0.37164	0	0.293091	-34.0538	308.296	5.50981	0.753973	0	0.283198	0	-2.86314	0	0	3.30815	0
0.081	29.0264	327.55	-5.76406	0.37118	0	0.293346	-34.1049	310.484	5.1149	0.75719	0	0.283155	0	-2.98815	0	0	3.38928	0
0.082	29.5957	328.859	-5.81183	0.370693	0	0.293316	-33.8156	310.029	6.02065	0.754497	0	0.283209	0	-3.02529	0	0	3.03222	0
0.083	28.7567	328.075	-6.21308	0.371151	0	0.293143	-33.8804	309.334	6.04626	0.754258	0	0.283521	0	-3.03188	0	0	3.15919	0
0.084	28.8402	328.855	-5.70982	0.370748	0	0.291928	-33.7029	309.428	5.88908	0.754306	0	0.282616	0	-2.9487	0	0	3.20377	0
0.085	28.6398	327.894	-3.60479	0.371905	0	0.293321	-33.8179	309.686	6.38192	0.754408	0	0.283055	0	-2.72834	0	0	3.1749	0
0.086	30.1374	327.807	-5.67892	0.371337	0	0.292726	-33.5957	310.041	5.84155	0.754737	0	0.282181	0	-3.02696	0	0	3.16644	0
0.087	28.9389	327.994	-8.0637	0.371762	0	0.293164	-34.016	308.726	5.72886	0.755031	0	0.283154	0	-3.30355	0	0	3.2053	0
0.088	28.8106	330.001	-5.63677	0.370311	0	0.293437	-33.6542	308.729	5.91479	0.754046	0	0.28299	0	-2.84985	0	0	3.26883	0
0.089	28.662	328.684	-5.90309	0.370849	0	0.293054	-34.0633	309.602	5.79694	0.754644	0	0.283317	0	-3.02237	0	0	3.21582	0
0.09	29.8889	328.246	-5.83348	0.371167	0	0.293178	-34.1193	310.744	5.79374	0.75536	0	0.283242	0	-3.06804	0	0	3.29467	0
0.091	28.9542	328.336	-5.92443	0.371164	0	0.293074	-33.6989	308.642	5.75846	0.754091	0	0.283316	0	-3.02018	0	0	3.32152	0
0.092	28.247	327.809	-5.86126	0.370926	0	0.292235	-33.8419	310.035	5.8406	0.754909	0	0.283089	0	-2.93917	0	0	3.14726	0
0.093	28.0929	327.372	-5.85762	0.371015	0	0.292614	-33.699	308.643	5.75745	0.754157	0	0.283033	0	-2.99215	0	0	3.29475	0
0.094	28.8856	328.511	-5.81142	0.371059	0	0.293397	-33.4806	309.24	5.67033	0.754852	0	0.285413	0	-3.00518	0	0	3.35804	0
0.095	32.8254	328.767	-5.90221	0.371099	0	0.292755	-34.3911	308.469	5.79741	0.754134	0	0.283047	0	-3.10724	0	0	3.21162	0
0.096	29.1064	325.718	-5.7341	0.371776	0	0.293761	-33.9975	309.168	5.77529	0.754959	0	0.283299	0	-2.96223	0	0	3.3142	0
0.097	29.1639	327.112	-5.89876	0.371306	0	0.292976	-35.266	308.555	5.72828	0.754287	0	0.28495	0	-2.99265	0	0	3.31252	0
0.098	28.9145	327.639	-5.87284	0.370926	0	0.293766	-33.8666	316.422	5.73294	0.757852	0	0.2829	0	-2.99778	0	0	3.11065	0
0.099	28.9345	327.728	-5.22654	0.371685	0	0.294015	-33.8058	308.286	5.64398	0.754092	0	0.283283	0	-2.91061	0	0	3.16875	0
